<svg height="249" viewBox="0 0 249 249" width="249" xmlns="http://www.w3.org/2000/svg"><path d="m125.093765 24.609375c-47.015053 0-87.052131 30.27533-100.375007 72h14.875c1.545288-4.123962 3.393005-8.097778 5.53125-11.90625h28.625c-1.248413 3.894592-2.274781 7.878204-3.125 11.90625h14.5c1.013031-4.059265 2.22052-8.045502 3.65625-11.90625h27.625007v11.90625h14v-11.90625h29.84375c1.605835 3.864166 2.9552 7.843567 4.09375 11.90625h14.5c-.974121-4.032288-2.108124-8.008179-3.5-11.90625h29.71875c2.138642 3.809174 3.985749 7.781464 5.53125 11.90625h14.84375c-13.322937-41.72464-53.328766-72-100.34375-72zm21.125 16.46875c19.595825 4.505859 36.710236 15.072784 49.09375 29.625h-25.96875c-5.799713-11.22052-13.484222-21.347382-23.125-29.625zm-46.343757 1.03125c-8.678742 8.055878-15.524109 17.810028-20.625 28.59375h-24.375c11.514312-13.530823 27.115112-23.614594 45-28.59375zm30.531257 4.5c9.230194 6.318329 16.678101 14.650513 22.59375 24.09375h-22.59375zm-14 .093689v24h-21.093757c5.41922-9.464905 12.337501-17.776154 21.093757-24zm-87.500007 63.4375c-1.393097.00003-2.556824.314423-3.5.96875-.943177.654388-1.40625 1.469635-1.40625 2.40625 0 .700867.201812 1.672119.65625 2.9375l7.4375 21.375c.226562.63916.487335 1.35968.78125 2.125.293884.76532.704559 1.445984 1.1875 2.03125.48291.585266 1.140136 1.034729 1.96875 1.375.828582.340271 1.86914.5 3.125.5 1.557495 0 2.780731-.28241 3.71875-.84375.937957-.56134 1.607513-1.164978 1.96875-1.84375.361206-.678772.810485-1.724121 1.375-3.15625l6.65625-18.75 6.625 18.84375c.551483 1.396179.990905 2.426514 1.34375 3.09375.352752.667236.99945 1.290222 1.9375 1.84375.937957.553528 2.185974.8125 3.75.8125 1.644195 0 2.932891-.269959 3.84375-.84375.910766-.573792 1.548217-1.219605 1.90625-1.9375.35791-.717896.777557-1.812378 1.28125-3.25l7.4375-21.375c.460846-1.341858.687439-2.313049.6875-2.9375-.000061-.953186-.482727-1.760162-1.4375-2.40625-.954895-.646027-2.100342-.96872-3.46875-.96875-1.372437.00003-2.431275.243042-3.15625.75-.725068.507019-1.222992 1.058105-1.5 1.65625-.27713.598206-.562867 1.388733-.84375 2.34375l-5.25 18.1875-5.875-17.03125c-.548981-1.430237-.994873-2.457703-1.34375-3.125-.348969-.667206-1.023041-1.314484-1.96875-1.90625-.945801-.591705-2.264985-.87497-3.96875-.875-1.675354.00003-2.984192.273712-3.96875.84375-.98465.570099-1.687897 1.238434-2.09375 1.96875-.405915.730347-.849213 1.746399-1.34375 3.09375l-5.84375 17.03125-5.28125-18.3125c-.413025-1.388794-.949005-2.493652-1.59375-3.34375-.644776-.850037-1.919861-1.28122-3.84375-1.28125zm71.96875 0c-1.393097.00003-2.556824.314423-3.5.96875-.943177.654388-1.40625 1.469635-1.40625 2.40625 0 .700867.233062 1.672119.6875 2.9375l7.437507 21.375c.226563.63916.487335 1.35968.78125 2.125.293885.76532.67331 1.445984 1.15625 2.03125.48291.585266 1.140137 1.034729 1.96875 1.375.828583.340271 1.869141.5 3.125.5 1.557495 0 2.811981-.28241 3.75-.84375.937958-.56134 1.576264-1.164978 1.9375-1.84375.361206-.678772.810486-1.724121 1.375-3.15625l6.65625-18.75 6.625 18.84375c.551483 1.396179.990906 2.426514 1.34375 3.09375.352753.667236.999451 1.290222 1.9375 1.84375.937958.553528 2.185974.8125 3.75.8125 1.644196 0 2.932892-.269959 3.84375-.84375.910767-.573792 1.548218-1.219605 1.90625-1.9375.35791-.717896.777558-1.812378 1.28125-3.25l7.4375-21.375c.460846-1.341858.687439-2.313049.6875-2.9375-.000061-.953186-.482727-1.760162-1.4375-2.40625-.954895-.646027-2.100342-.96872-3.46875-.96875-1.372436.00003-2.431274.243042-3.15625.75-.725067.507019-1.222992 1.058105-1.5 1.65625-.27713.598206-.562866 1.388733-.84375 2.34375l-5.25 18.1875-5.875-17.03125c-.54898-1.430237-.994873-2.457703-1.34375-3.125-.348968-.667206-.991791-1.314484-1.9375-1.90625-.945801-.591705-2.264984-.87497-3.96875-.875-1.675354.00003-3.015442.273712-4 .84375-.984649.570099-1.687896 1.238434-2.09375 1.96875-.405914.730347-.849212 1.746399-1.34375 3.09375l-5.84375 17.03125-5.28125-18.3125c-.413025-1.388794-.917755-2.493652-1.5625-3.34375-.644775-.850037-1.951118-1.28122-3.875007-1.28125zm71.968757 0c-1.393097.00003-2.556823.314423-3.5.96875-.943176.654388-1.40625 1.469635-1.40625 2.40625 0 .700867.233063 1.672119.6875 2.9375l7.4375 21.375c.226563.63916.487335 1.35968.78125 2.125.293885.76532.67331 1.445984 1.15625 2.03125.48291.585266 1.140137 1.034729 1.96875 1.375.828583.340271 1.869141.5 3.125.5 1.557495 0 2.811981-.28241 3.75-.84375.937958-.56134 1.576264-1.164978 1.9375-1.84375.361206-.678772.841736-1.724121 1.40625-3.15625l6.625-18.75 6.625 18.84375c.551483 1.396179.990906 2.426514 1.34375 3.09375.352753.667236.999451 1.290222 1.9375 1.84375.937958.553528 2.185974.8125 3.75.8125 1.644196 0 2.932892-.269959 3.84375-.84375.910767-.573792 1.548218-1.219605 1.90625-1.9375.35791-.717896.777558-1.812378 1.28125-3.25l7.4375-21.375c.460846-1.341858.687439-2.313049.6875-2.9375-.000061-.953186-.451477-1.760162-1.40625-2.40625-.954895-.646027-2.131592-.96872-3.5-.96875-1.372436.00003-2.431274.243042-3.15625.75-.725067.507019-1.222992 1.058105-1.5 1.65625-.27713.598206-.562866 1.388733-.84375 2.34375l-5.21875 18.187561-5.90625-17.03125c-.54898-1.430237-.994873-2.457764-1.34375-3.125-.348968-.667236-.991791-1.314514-1.9375-1.90625-.945801-.591705-2.264984-.874969-3.96875-.875-1.675354.000031-3.015442.273682-4 .84375-.984649.570099-1.687896 1.238434-2.09375 1.96875-.405914.730347-.849212 1.746399-1.34375 3.09375l-5.84375 17.03125-5.25-18.3125c-.413025-1.388794-.949005-2.493683-1.59375-3.34375-.644775-.850037-1.951111-1.281219-3.875-1.28125zm-148.656257 45.406311c12.71875 42.667053 53.2005 73.84375 100.906257 73.84375 47.706391 0 88.18808-31.175781 100.90625-73.84375h-14.78125c-1.409485 4.023987-3.094055 7.91449-5.0625 11.65625h-30c1.277191-3.815002 2.331452-7.714722 3.21875-11.65625h-14.28125c-.99704 3.985596-2.191559 7.879639-3.65625 11.65625h-31.03125v-11.65625h-14v11.65625h-28.343757c-1.285218-3.762634-2.390961-7.660767-3.3125-11.65625h-14.375c.805389 3.946106 1.788299 7.841431 2.90625 11.65625h-29.25c-1.968476-3.74176-3.684266-7.632263-5.09375-11.65625zm29.03125 25.65625h25.09375c5.121551 11.846863 11.911956 22.427124 20.65625 30.46875-18.410187-5.325134-34.27713-16.131165-45.75-30.46875zm40.6875 0h22.500007v26.15625c-9.092102-5.763611-16.696693-14.951965-22.500007-26.15625zm36.500007 0h24.0625c-6.109131 10.212036-14.053711 19.046753-24.0625 25.5zm40.15625 0h26.40625c-12.636017 15.791138-30.629608 27.288574-51.4375 31.90625 10.677246-8.633545 18.973297-19.625854 25.03125-31.90625z" fill="#fff"/></svg>